<?xml version="1.0" encoding="UTF-8" standalone="no"?>
<svg
   height="128px"
   viewBox="0 0 128 128"
   width="128px"
   version="1.1"
   id="svg70"
   sodipodi:docname="nl.emphisia.icon.Devel.svg"
   inkscape:version="1.3.2 (091e20ef0f, 2023-11-25)"
   xmlns:inkscape="http://www.inkscape.org/namespaces/inkscape"
   xmlns:sodipodi="http://sodipodi.sourceforge.net/DTD/sodipodi-0.dtd"
   xmlns:xlink="http://www.w3.org/1999/xlink"
   xmlns="http://www.w3.org/2000/svg"
   xmlns:svg="http://www.w3.org/2000/svg">
  <sodipodi:namedview
     id="namedview70"
     pagecolor="#ffffff"
     bordercolor="#000000"
     borderopacity="0.25"
     inkscape:showpageshadow="2"
     inkscape:pageopacity="0.0"
     inkscape:pagecheckerboard="0"
     inkscape:deskcolor="#d1d1d1"
     inkscape:zoom="8.7578125"
     inkscape:cx="64"
     inkscape:cy="64"
     inkscape:window-width="2560"
     inkscape:window-height="1371"
     inkscape:window-x="0"
     inkscape:window-y="0"
     inkscape:window-maximized="1"
     inkscape:current-layer="svg70" />
  <defs
     id="defs51">
    <filter
       id="a"
       height="1"
       width="1"
       x="0"
       y="0">
      <feColorMatrix
         color-interpolation-filters="sRGB"
         values="0 0 0 0 1 0 0 0 0 1 0 0 0 0 1 0 0 0 1 0"
         id="feColorMatrix1" />
    </filter>
    <linearGradient
       id="b"
       gradientTransform="matrix(0.232143 0 0 0.328947 -8.941925 264.326965)"
       gradientUnits="userSpaceOnUse"
       x1="88.595886"
       x2="536.595886"
       y1="-449.394012"
       y2="-449.394012">
      <stop
         offset="0"
         stop-color="#77767b"
         id="stop1" />
      <stop
         offset="0.0384615"
         stop-color="#c0bfbc"
         id="stop2" />
      <stop
         offset="0.0768555"
         stop-color="#9a9996"
         id="stop3" />
      <stop
         offset="0.923077"
         stop-color="#9a9996"
         id="stop4" />
      <stop
         offset="0.961538"
         stop-color="#c0bfbc"
         id="stop5" />
      <stop
         offset="1"
         stop-color="#77767b"
         id="stop6" />
    </linearGradient>
    <linearGradient
       id="c"
       gradientTransform="matrix(-0.847833 0 -0 -0.856845 124.056413 -141.219415)"
       gradientUnits="userSpaceOnUse"
       x1="27.99999"
       x2="115.999992"
       y1="-276"
       y2="-276">
      <stop
         offset="0"
         stop-color="#c0bfbc"
         id="stop7" />
      <stop
         offset="0.0454545"
         stop-color="#ffffff"
         id="stop8" />
      <stop
         offset="0.0909091"
         stop-color="#deddda"
         id="stop9" />
      <stop
         offset="0.909091"
         stop-color="#deddda"
         id="stop10" />
      <stop
         offset="0.954545"
         stop-color="#ffffff"
         id="stop11" />
      <stop
         offset="1"
         stop-color="#c0bfbc"
         id="stop12" />
    </linearGradient>
    <linearGradient
       id="d"
       gradientTransform="matrix(0.385152 0 0 0.409929 -1016.730813 557.493527)"
       gradientUnits="userSpaceOnUse"
       x1="2689.251953"
       x2="2918.069824"
       y1="-1106.802979"
       y2="-1106.802979">
      <stop
         offset="0"
         stop-color="#62a0ea"
         id="stop13" />
      <stop
         offset="0.0576991"
         stop-color="#afd4ff"
         id="stop14" />
      <stop
         offset="0.122204"
         stop-color="#62a0ea"
         id="stop15" />
      <stop
         offset="0.873306"
         stop-color="#62a0ea"
         id="stop16" />
      <stop
         offset="0.955997"
         stop-color="#c0d5ea"
         id="stop17" />
      <stop
         offset="1"
         stop-color="#62a0ea"
         id="stop18" />
    </linearGradient>
    <mask
       id="e">
      <g
         filter="url(#a)"
         id="g18">
        <rect
           fill-opacity="0.508475"
           height="153.6"
           width="153.6"
           x="-12.8"
           y="-12.8"
           id="rect18" />
      </g>
    </mask>
    <mask
       id="f">
      <g
         filter="url(#a)"
         id="g19">
        <rect
           fill-opacity="0.505085"
           height="153.6"
           width="153.6"
           x="-12.8"
           y="-12.8"
           id="rect19" />
      </g>
    </mask>
    <linearGradient
       id="g"
       gradientUnits="userSpaceOnUse">
      <stop
         offset="0"
         stop-color="#fc9a91"
         id="stop19" />
      <stop
         offset="1"
         stop-color="#cb2b31"
         id="stop20" />
    </linearGradient>
    <linearGradient
       id="h"
       gradientTransform="matrix(0.6 0.6 0.707107 -0.707107 296.623446 119.456292)"
       x1="-253.630356"
       x2="-230.060135"
       xlink:href="#g"
       y1="-56.517502"
       y2="-56.517502" />
    <linearGradient
       id="i"
       gradientTransform="matrix(0.6 0.6 0.707107 -0.707107 295.209261 120.870507)"
       x1="-253.630356"
       x2="-230.060135"
       xlink:href="#g"
       y1="-56.517502"
       y2="-56.517502" />
    <linearGradient
       id="j"
       gradientTransform="matrix(0.390307 -0.130102 0.130102 -0.390307 -2.081064 56.129952)"
       gradientUnits="userSpaceOnUse"
       x1="181.677414"
       x2="143.24614"
       y1="-139.479385"
       y2="-101.048103">
      <stop
         offset="0"
         stop-color="#d0bb8e"
         id="stop21" />
      <stop
         offset="1"
         stop-color="#ffffff"
         id="stop22" />
    </linearGradient>
    <linearGradient
       id="k"
       gradientTransform="matrix(0.6 0.6 0.707107 -0.707107 295.209261 120.870476)"
       gradientUnits="userSpaceOnUse"
       x1="-230.060135"
       x2="-253.630356"
       y1="-64.517509"
       y2="-64.517509">
      <stop
         offset="0"
         stop-color="#c0bfbc"
         id="stop23" />
      <stop
         offset="0.223152"
         stop-color="#9a9996"
         id="stop24" />
      <stop
         offset="0.743841"
         stop-color="#d6d5d2"
         id="stop25" />
      <stop
         offset="1"
         stop-color="#f6f5f4"
         id="stop26" />
    </linearGradient>
    <clipPath
       id="l">
      <path
         d="m 0 0 h 128 v 128 h -128 z m 0 0"
         id="path26" />
    </clipPath>
    <mask
       id="m">
      <g
         filter="url(#a)"
         id="g26">
        <rect
           fill-opacity="0.508475"
           height="221.184"
           width="221.184"
           x="-46.592"
           y="-46.592"
           id="rect26" />
      </g>
    </mask>
    <clipPath
       id="n">
      <rect
         height="152"
         width="192"
         id="rect27" />
    </clipPath>
    <g
       id="o"
       clip-path="url(#n)">
      <path
         d="m 62.050781 78.90625 c -2.101562 0 -3.820312 1.78125 -3.820312 3.964844 s 1.71875 3.964844 3.820312 3.964844 c 2.105469 0 3.824219 -1.78125 3.824219 -3.964844 s -1.71875 -3.964844 -3.824219 -3.964844 z m 13.375 11.894531 l -7.640625 7.929688 l -5.734375 -3.964844 l -7.640625 7.925781 v 1.984375 c 0 1.980469 1.910156 1.980469 1.910156 1.980469 h 26.75 s 1.804688 -0.136719 1.910157 -1.980469 v -3.964843 z m 0 0"
         fill="#438de6"
         id="path27" />
    </g>
    <mask
       id="p">
      <g
         filter="url(#a)"
         id="g28">
        <rect
           fill-opacity="0.505085"
           height="221.184"
           width="221.184"
           x="-46.592"
           y="-46.592"
           id="rect28" />
      </g>
    </mask>
    <clipPath
       id="q">
      <rect
         height="152"
         width="192"
         id="rect29" />
    </clipPath>
    <g
       id="r"
       clip-path="url(#q)">
      <path
         d="m 54.410156 63.050781 c -6.285156 0 -11.464844 5.375 -11.464844 11.890625 v 31.714844 c 0 6.519531 5.179688 11.894531 11.464844 11.894531 h 30.570313 c 6.285156 0 11.464843 -5.375 11.464843 -11.894531 v -31.714844 c 0 -6.515625 -5.179687 -11.890625 -11.464843 -11.890625 z m 0 7.929688 h 30.570313 c 2.179687 0 3.820312 1.703125 3.820312 3.960937 v 31.714844 c 0 2.261719 -1.640625 3.964844 -3.820312 3.964844 h -30.570313 c -2.179687 0 -3.820312 -1.703125 -3.820312 -3.964844 v -31.714844 c 0 -2.257812 1.640625 -3.960937 3.820312 -3.960937 z m 0 0"
         fill="#438de6"
         id="path29" />
    </g>
    <clipPath
       id="s">
      <rect
         height="128"
         width="128"
         id="rect30" />
    </clipPath>
    <clipPath
       id="t">
      <rect
         height="128"
         width="128"
         id="rect31" />
    </clipPath>
    <mask
       id="u">
      <g
         filter="url(#a)"
         id="g48">
        <g
           clip-path="url(#t)"
           filter="url(#a)"
           id="g47">
          <g
             clip-path="url(#s)"
             id="g46">
            <path
               d="m 19.625 16.5 h 88 c 4.417969 0 8 3.582031 8 8 v 84 c 0 4.417969 -3.582031 8 -8 8 h -88 c -4.417969 0 -8 -3.582031 -8 -8 v -84 c 0 -4.417969 3.582031 -8 8 -8 z m 0 0"
               fill="url(#b)"
               id="path31" />
            <path
               d="m 19.625 12.5 h 88 c 4.417969 0 8 3.582031 8 8 v 84 c 0 4.417969 -3.582031 8 -8 8 h -88 c -4.417969 0 -8 -3.582031 -8 -8 v -84 c 0 -4.417969 3.582031 -8 8 -8 z m 0 0"
               fill="#deddda"
               id="path32" />
            <path
               d="m 27.382812 18.152344 c -4.683593 0 -8.457031 3.824218 -8.457031 8.570312 v 73.714844 c 0 4.75 3.773438 8.570312 8.457031 8.570312 h 71.253907 c 4.691406 0 8.464843 -3.820312 8.464843 -8.570312 v -61.765625 c 0 -5.679687 -4.546874 -10.28125 -10.152343 -10.28125 h -39.023438 c -2.082031 0 -3.980469 -1.191406 -4.914062 -3.070313 l -1.277344 -2.5625 c -1.402344 -2.824218 -4.253906 -4.605468 -7.375 -4.605468 z m 0 0"
               fill="#438de6"
               id="path33" />
            <path
               d="m 64.6875 38.71875 c -2.328125 0 -4.429688 0.941406 -5.957031 2.476562 c -1.925781 1.929688 -4.5625 4.378907 -7.320313 4.378907 h -24.027344 c -4.683593 0 -8.457031 3.820312 -8.457031 8.566406 v 46.296875 c 0 4.75 3.773438 8.570312 8.457031 8.570312 h 71.253907 c 4.691406 0 8.464843 -3.820312 8.464843 -8.570312 v -53.152344 c 0 -4.746094 -3.773437 -8.566406 -8.464843 -8.566406 z m 0 0"
               fill="url(#c)"
               id="path34" />
            <path
               d="m 64.78125 35.390625 c -2.328125 0 -4.429688 0.992187 -5.953125 2.601563 c -1.929687 2.027343 -4.5625 4.597656 -7.316406 4.597656 h -24.015625 c -4.683594 0 -8.453125 4.015625 -8.453125 9 v 48.621094 c 0 4.988281 3.769531 9 8.453125 9 h 71.21875 c 4.6875 0 8.457031 -4.011719 8.457031 -9 v -55.820313 c 0 -4.984375 -3.769531 -9 -8.457031 -9 z m 0 0"
               fill="url(#d)"
               id="path35" />
            <path
               d="m 64.6875 35.289062 c -2.328125 0 -4.429688 0.945313 -5.957031 2.476563 c -1.925781 1.933594 -4.5625 4.378906 -7.320313 4.378906 h -24.027344 c -4.683593 0 -8.457031 3.824219 -8.457031 8.570313 v 47.960937 c 0 4.746094 3.773438 8.570313 8.457031 8.570313 h 71.253907 c 4.691406 0 8.464843 -3.824219 8.464843 -8.570313 v -54.816406 c 0 -4.746094 -3.773437 -8.570313 -8.464843 -8.570313 z m 0 0"
               fill="#a4caee"
               id="path36" />
            <g
               clip-path="url(#l)"
               id="g38">
              <g
                 mask="url(#m)"
                 id="g36">
                <use
                   transform="matrix(1 0 0 1 -8 -16)"
                   xlink:href="#o"
                   id="use36" />
              </g>
              <g
                 mask="url(#p)"
                 id="g37">
                <use
                   transform="matrix(1 0 0 1 -8 -16)"
                   xlink:href="#r"
                   id="use37" />
              </g>
            </g>
            <path
               d="m 38.871094 87.042969 l 0.003906 -0.128907 l 6.445312 -0.125 l 1.550782 -1.84375 l 8.707031 -1.800781 l 10.699219 -37.742187 l -36.585938 0.171875 l -0.058594 41.722656 z m 0 0"
               fill="#a4caee"
               id="path38" />
            <path
               d="m 43.226562 71.324219 l 11.3125 11.3125 l 59.597657 -59.597657 l -11.3125 -11.3125 z m 0 0"
               fill="#ff881e"
               id="path39" />
            <path
               d="m 51.660156 79.859375 l 4.242188 4.242187 l 59.597656 -59.597656 l -4.242188 -4.242187 z m 0 0"
               fill="#e66100"
               id="path40" />
            <path
               d="m 46.003906 74.203125 l -4.242187 -4.242187 l 59.597656 -59.597657 l 4.242187 4.242188 z m 0 0"
               fill="#ffb367"
               id="path41" />
            <path
               d="m 97.410156 14.3125 l 14.140625 14.140625 l 5.65625 -5.65625 l -14.140625 -14.140625 z m 0 0"
               fill="url(#h)"
               id="path42" />
            <path
               d="m 117.207031 22.796875 c 3.90625 -3.90625 3.90625 -10.238281 0 -14.140625 c -3.902343 -3.90625 -10.234375 -3.90625 -14.140625 0 c -3.90625 3.902344 -3.90625 10.234375 0 14.140625 s 10.238282 3.90625 14.140625 0 z m 0 0"
               fill="url(#i)"
               id="path43" />
            <path
               d="m 38.882812 86.980469 l 17.070313 -2.929688 l -14.140625 -14.140625 z m 0 0"
               fill="url(#j)"
               id="path44" />
            <path
               d="m 38.882812 86.980469 l 7.414063 -1.273438 l -6.140625 -6.140625 z m 0 0"
               fill="#3d3846"
               id="path45" />
            <path
               d="m 94.582031 17.140625 l 14.140625 14.140625 l 5.65625 -5.65625 l -14.140625 -14.140625 z m 0 0"
               fill="url(#k)"
               id="path46" />
          </g>
        </g>
      </g>
    </mask>
    <mask
       id="v">
      <g
         filter="url(#a)"
         id="g49">
        <rect
           fill-opacity="0.8"
           height="184.32"
           width="184.32"
           x="-28.16"
           y="-28.16"
           id="rect48" />
      </g>
    </mask>
    <linearGradient
       id="w"
       gradientTransform="matrix(0 0.37 -0.98462 0 295.38501 -30.360001)"
       gradientUnits="userSpaceOnUse"
       x1="300"
       x2="428"
       y1="235"
       y2="235">
      <stop
         offset="0"
         stop-color="#f9f06b"
         id="stop49" />
      <stop
         offset="1"
         stop-color="#f5c211"
         id="stop50" />
    </linearGradient>
    <clipPath
       id="x">
      <rect
         height="128"
         width="128"
         id="rect50" />
    </clipPath>
    <clipPath
       id="y">
      <rect
         height="128"
         width="128"
         id="rect51" />
    </clipPath>
  </defs>
  <path
     d="m 19.625 16.5 h 88 c 4.417969 0 8 3.582031 8 8 v 84 c 0 4.417969 -3.582031 8 -8 8 h -88 c -4.417969 0 -8 -3.582031 -8 -8 v -84 c 0 -4.417969 3.582031 -8 8 -8 z m 0 0"
     fill="url(#b)"
     id="path51" />
  <path
     d="m 19.625 12.5 h 88 c 4.417969 0 8 3.582031 8 8 v 84 c 0 4.417969 -3.582031 8 -8 8 h -88 c -4.417969 0 -8 -3.582031 -8 -8 v -84 c 0 -4.417969 3.582031 -8 8 -8 z m 0 0"
     fill="#deddda"
     id="path52" />
  <path
     d="m 27.382812 18.152344 c -4.683593 0 -8.457031 3.824218 -8.457031 8.570312 v 73.714844 c 0 4.75 3.773438 8.570312 8.457031 8.570312 h 71.253907 c 4.691406 0 8.464843 -3.820312 8.464843 -8.570312 v -61.765625 c 0 -5.679687 -4.546874 -10.28125 -10.152343 -10.28125 h -39.023438 c -2.082031 0 -3.980469 -1.191406 -4.914062 -3.070313 l -1.277344 -2.5625 c -1.402344 -2.824218 -4.253906 -4.605468 -7.375 -4.605468 z m 0 0"
     fill="#438de6"
     id="path53" />
  <path
     d="m 64.6875 38.71875 c -2.328125 0 -4.429688 0.941406 -5.957031 2.476562 c -1.925781 1.929688 -4.5625 4.378907 -7.320313 4.378907 h -24.027344 c -4.683593 0 -8.457031 3.820312 -8.457031 8.566406 v 46.296875 c 0 4.75 3.773438 8.570312 8.457031 8.570312 h 71.253907 c 4.691406 0 8.464843 -3.820312 8.464843 -8.570312 v -53.152344 c 0 -4.746094 -3.773437 -8.566406 -8.464843 -8.566406 z m 0 0"
     fill="url(#c)"
     id="path54" />
  <path
     d="m 64.78125 35.390625 c -2.328125 0 -4.429688 0.992187 -5.953125 2.601563 c -1.929687 2.027343 -4.5625 4.597656 -7.316406 4.597656 h -24.015625 c -4.683594 0 -8.453125 4.015625 -8.453125 9 v 48.621094 c 0 4.988281 3.769531 9 8.453125 9 h 71.21875 c 4.6875 0 8.457031 -4.011719 8.457031 -9 v -55.820313 c 0 -4.984375 -3.769531 -9 -8.457031 -9 z m 0 0"
     fill="url(#d)"
     id="path55" />
  <path
     d="m 64.6875 35.289062 c -2.328125 0 -4.429688 0.945313 -5.957031 2.476563 c -1.925781 1.933594 -4.5625 4.378906 -7.320313 4.378906 h -24.027344 c -4.683593 0 -8.457031 3.824219 -8.457031 8.570313 v 47.960937 c 0 4.746094 3.773438 8.570313 8.457031 8.570313 h 71.253907 c 4.691406 0 8.464843 -3.824219 8.464843 -8.570313 v -54.816406 c 0 -4.746094 -3.773437 -8.570313 -8.464843 -8.570313 z m 0 0"
     fill="#a4caee"
     id="path56" />
  <g
     mask="url(#e)"
     id="g56">
    <use
       transform="matrix(1 0 0 1 -8 -16)"
       xlink:href="#o"
       id="use56" />
  </g>
  <g
     mask="url(#f)"
     id="g57">
    <use
       transform="matrix(1 0 0 1 -8 -16)"
       xlink:href="#r"
       id="use57" />
  </g>
  <path
     d="m 38.871094 87.042969 l 0.003906 -0.128907 l 6.445312 -0.125 l 1.550782 -1.84375 l 8.707031 -1.800781 l 10.699219 -37.742187 l -36.585938 0.171875 l -0.058594 41.722656 z m 0 0"
     fill="#a4caee"
     id="path57" />
  <g
     mask="url(#u)"
     id="g70">
    <g
       clip-path="url(#y)"
       id="g69">
      <g
         mask="url(#v)"
         id="g68">
        <g
           clip-path="url(#x)"
           id="g67">
          <path
             d="m 128 80.640625 v 47.359375 h -128 v -47.359375 z m 0 0"
             fill="url(#w)"
             id="path66" />
          <path
             d="m 13.308594 80.640625 l 47.355468 47.359375 h 21.214844 l -47.359375 -47.359375 z m 42.421875 0 l 47.363281 47.359375 h 21.214844 l -47.363282 -47.359375 z m 42.429687 0 l 29.839844 29.839844 v -21.210938 l -8.628906 -8.628906 z m -98.160156 7.90625 v 21.214844 l 18.238281 18.238281 h 21.214844 z m 0 0"
             id="path67" />
        </g>
      </g>
    </g>
  </g>
  <path
     d="m 43.226562 71.324219 l 11.3125 11.3125 l 59.597657 -59.597657 l -11.3125 -11.3125 z m 0 0"
     fill="#ff881e"
     id="path58" />
  <path
     d="m 51.660156 79.859375 l 4.242188 4.242187 l 59.597656 -59.597656 l -4.242188 -4.242187 z m 0 0"
     fill="#e66100"
     id="path59" />
  <path
     d="m 46.003906 74.203125 l -4.242187 -4.242187 l 59.597656 -59.597657 l 4.242187 4.242188 z m 0 0"
     fill="#ffb367"
     id="path60" />
  <path
     d="m 97.410156 14.3125 l 14.140625 14.140625 l 5.65625 -5.65625 l -14.140625 -14.140625 z m 0 0"
     fill="url(#h)"
     id="path61" />
  <path
     d="m 117.207031 22.796875 c 3.90625 -3.90625 3.90625 -10.238281 0 -14.140625 c -3.902343 -3.90625 -10.234375 -3.90625 -14.140625 0 c -3.90625 3.902344 -3.90625 10.234375 0 14.140625 s 10.238282 3.90625 14.140625 0 z m 0 0"
     fill="url(#i)"
     id="path62" />
  <path
     d="m 38.882812 86.980469 l 17.070313 -2.929688 l -14.140625 -14.140625 z m 0 0"
     fill="url(#j)"
     id="path63" />
  <path
     d="m 38.882812 86.980469 l 7.414063 -1.273438 l -6.140625 -6.140625 z m 0 0"
     fill="#3d3846"
     id="path64" />
  <path
     d="m 94.582031 17.140625 l 14.140625 14.140625 l 5.65625 -5.65625 l -14.140625 -14.140625 z m 0 0"
     fill="url(#k)"
     id="path65" />
</svg>
