<?xml version="1.0" encoding="UTF-8"?>
<svg height="128px" viewBox="0 0 128 128" width="128px" xmlns="http://www.w3.org/2000/svg" xmlns:xlink="http://www.w3.org/1999/xlink">
    <filter id="a" height="100%" width="100%" x="0%" y="0%">
        <feColorMatrix color-interpolation-filters="sRGB" values="0 0 0 0 1 0 0 0 0 1 0 0 0 0 1 0 0 0 1 0"/>
    </filter>
    <linearGradient id="b" gradientTransform="matrix(0.232143 0 0 0.328947 -8.941925 264.326965)" gradientUnits="userSpaceOnUse" x1="88.595886" x2="536.595886" y1="-449.394012" y2="-449.394012">
        <stop offset="0" stop-color="#77767b"/>
        <stop offset="0.0384615" stop-color="#c0bfbc"/>
        <stop offset="0.0768555" stop-color="#9a9996"/>
        <stop offset="0.923077" stop-color="#9a9996"/>
        <stop offset="0.961538" stop-color="#c0bfbc"/>
        <stop offset="1" stop-color="#77767b"/>
    </linearGradient>
    <linearGradient id="c" gradientTransform="matrix(-0.847833 0 -0 -0.856845 124.056413 -141.219415)" gradientUnits="userSpaceOnUse" x1="27.99999" x2="115.999992" y1="-276" y2="-276">
        <stop offset="0" stop-color="#c0bfbc"/>
        <stop offset="0.0454545" stop-color="#ffffff"/>
        <stop offset="0.0909091" stop-color="#deddda"/>
        <stop offset="0.909091" stop-color="#deddda"/>
        <stop offset="0.954545" stop-color="#ffffff"/>
        <stop offset="1" stop-color="#c0bfbc"/>
    </linearGradient>
    <linearGradient id="d" gradientTransform="matrix(0.385152 0 0 0.409929 -1016.730813 557.493527)" gradientUnits="userSpaceOnUse" x1="2689.251953" x2="2918.069824" y1="-1106.802979" y2="-1106.802979">
        <stop offset="0" stop-color="#62a0ea"/>
        <stop offset="0.0576991" stop-color="#afd4ff"/>
        <stop offset="0.122204" stop-color="#62a0ea"/>
        <stop offset="0.873306" stop-color="#62a0ea"/>
        <stop offset="0.955997" stop-color="#c0d5ea"/>
        <stop offset="1" stop-color="#62a0ea"/>
    </linearGradient>
    <mask id="e">
        <g filter="url(#a)">
            <rect fill-opacity="0.508475" height="153.6" width="153.6" x="-12.8" y="-12.8"/>
        </g>
    </mask>
    <clipPath id="f">
        <rect height="152" width="192"/>
    </clipPath>
    <mask id="g">
        <g filter="url(#a)">
            <rect fill-opacity="0.505085" height="153.6" width="153.6" x="-12.8" y="-12.8"/>
        </g>
    </mask>
    <clipPath id="h">
        <rect height="152" width="192"/>
    </clipPath>
    <linearGradient id="i" gradientUnits="userSpaceOnUse">
        <stop offset="0" stop-color="#fc9a91"/>
        <stop offset="1" stop-color="#cb2b31"/>
    </linearGradient>
    <linearGradient id="j" gradientTransform="matrix(0.6 0.6 0.707107 -0.707107 296.623446 119.456292)" x1="-253.630356" x2="-230.060135" xlink:href="#i" y1="-56.517502" y2="-56.517502"/>
    <linearGradient id="k" gradientTransform="matrix(0.6 0.6 0.707107 -0.707107 295.209261 120.870507)" x1="-253.630356" x2="-230.060135" xlink:href="#i" y1="-56.517502" y2="-56.517502"/>
    <linearGradient id="l" gradientTransform="matrix(0.390307 -0.130102 0.130102 -0.390307 -2.081064 56.129952)" gradientUnits="userSpaceOnUse" x1="181.677414" x2="143.24614" y1="-139.479385" y2="-101.048103">
        <stop offset="0" stop-color="#d0bb8e"/>
        <stop offset="1" stop-color="#ffffff"/>
    </linearGradient>
    <linearGradient id="m" gradientTransform="matrix(0.6 0.6 0.707107 -0.707107 295.209261 120.870476)" gradientUnits="userSpaceOnUse" x1="-230.060135" x2="-253.630356" y1="-64.517509" y2="-64.517509">
        <stop offset="0" stop-color="#c0bfbc"/>
        <stop offset="0.223152" stop-color="#9a9996"/>
        <stop offset="0.743841" stop-color="#d6d5d2"/>
        <stop offset="1" stop-color="#f6f5f4"/>
    </linearGradient>
    <path d="m 19.625 16.5 h 88 c 4.417969 0 8 3.582031 8 8 v 84 c 0 4.417969 -3.582031 8 -8 8 h -88 c -4.417969 0 -8 -3.582031 -8 -8 v -84 c 0 -4.417969 3.582031 -8 8 -8 z m 0 0" fill="url(#b)"/>
    <path d="m 19.625 12.5 h 88 c 4.417969 0 8 3.582031 8 8 v 84 c 0 4.417969 -3.582031 8 -8 8 h -88 c -4.417969 0 -8 -3.582031 -8 -8 v -84 c 0 -4.417969 3.582031 -8 8 -8 z m 0 0" fill="#deddda"/>
    <path d="m 27.382812 18.152344 c -4.683593 0 -8.457031 3.824218 -8.457031 8.570312 v 73.714844 c 0 4.75 3.773438 8.570312 8.457031 8.570312 h 71.253907 c 4.691406 0 8.464843 -3.820312 8.464843 -8.570312 v -61.765625 c 0 -5.679687 -4.546874 -10.28125 -10.152343 -10.28125 h -39.023438 c -2.082031 0 -3.980469 -1.191406 -4.914062 -3.070313 l -1.277344 -2.5625 c -1.402344 -2.824218 -4.253906 -4.605468 -7.375 -4.605468 z m 0 0" fill="#438de6"/>
    <path d="m 64.6875 38.71875 c -2.328125 0 -4.429688 0.941406 -5.957031 2.476562 c -1.925781 1.929688 -4.5625 4.378907 -7.320313 4.378907 h -24.027344 c -4.683593 0 -8.457031 3.820312 -8.457031 8.566406 v 46.296875 c 0 4.75 3.773438 8.570312 8.457031 8.570312 h 71.253907 c 4.691406 0 8.464843 -3.820312 8.464843 -8.570312 v -53.152344 c 0 -4.746094 -3.773437 -8.566406 -8.464843 -8.566406 z m 0 0" fill="url(#c)"/>
    <path d="m 64.78125 35.390625 c -2.328125 0 -4.429688 0.992187 -5.953125 2.601563 c -1.929687 2.027343 -4.5625 4.597656 -7.316406 4.597656 h -24.015625 c -4.683594 0 -8.453125 4.015625 -8.453125 9 v 48.621094 c 0 4.988281 3.769531 9 8.453125 9 h 71.21875 c 4.6875 0 8.457031 -4.011719 8.457031 -9 v -55.820313 c 0 -4.984375 -3.769531 -9 -8.457031 -9 z m 0 0" fill="url(#d)"/>
    <path d="m 64.6875 35.289062 c -2.328125 0 -4.429688 0.945313 -5.957031 2.476563 c -1.925781 1.933594 -4.5625 4.378906 -7.320313 4.378906 h -24.027344 c -4.683593 0 -8.457031 3.824219 -8.457031 8.570313 v 47.960937 c 0 4.746094 3.773438 8.570313 8.457031 8.570313 h 71.253907 c 4.691406 0 8.464843 -3.824219 8.464843 -8.570313 v -54.816406 c 0 -4.746094 -3.773437 -8.570313 -8.464843 -8.570313 z m 0 0" fill="#a4caee"/>
    <g mask="url(#e)">
        <g clip-path="url(#f)" transform="matrix(1 0 0 1 -8 -16)">
            <path d="m 62.050781 78.90625 c -2.101562 0 -3.820312 1.78125 -3.820312 3.964844 s 1.71875 3.964844 3.820312 3.964844 c 2.105469 0 3.824219 -1.78125 3.824219 -3.964844 s -1.71875 -3.964844 -3.824219 -3.964844 z m 13.375 11.894531 l -7.640625 7.929688 l -5.734375 -3.964844 l -7.640625 7.925781 v 1.984375 c 0 1.980469 1.910156 1.980469 1.910156 1.980469 h 26.75 s 1.804688 -0.136719 1.910157 -1.980469 v -3.964843 z m 0 0" fill="#438de6"/>
        </g>
    </g>
    <g mask="url(#g)">
        <g clip-path="url(#h)" transform="matrix(1 0 0 1 -8 -16)">
            <path d="m 54.410156 63.050781 c -6.285156 0 -11.464844 5.375 -11.464844 11.890625 v 31.714844 c 0 6.519531 5.179688 11.894531 11.464844 11.894531 h 30.570313 c 6.285156 0 11.464843 -5.375 11.464843 -11.894531 v -31.714844 c 0 -6.515625 -5.179687 -11.890625 -11.464843 -11.890625 z m 0 7.929688 h 30.570313 c 2.179687 0 3.820312 1.703125 3.820312 3.960937 v 31.714844 c 0 2.261719 -1.640625 3.964844 -3.820312 3.964844 h -30.570313 c -2.179687 0 -3.820312 -1.703125 -3.820312 -3.964844 v -31.714844 c 0 -2.257812 1.640625 -3.960937 3.820312 -3.960937 z m 0 0" fill="#438de6"/>
        </g>
    </g>
    <path d="m 38.871094 87.042969 l 0.003906 -0.128907 l 6.445312 -0.125 l 1.550782 -1.84375 l 8.707031 -1.800781 l 10.699219 -37.742187 l -36.585938 0.171875 l -0.058594 41.722656 z m 0 0" fill="#a4caee"/>
    <path d="m 43.226562 71.324219 l 11.3125 11.3125 l 59.597657 -59.597657 l -11.3125 -11.3125 z m 0 0" fill="#ff881e"/>
    <path d="m 51.660156 79.859375 l 4.242188 4.242187 l 59.597656 -59.597656 l -4.242188 -4.242187 z m 0 0" fill="#e66100"/>
    <path d="m 46.003906 74.203125 l -4.242187 -4.242187 l 59.597656 -59.597657 l 4.242187 4.242188 z m 0 0" fill="#ffb367"/>
    <path d="m 97.410156 14.3125 l 14.140625 14.140625 l 5.65625 -5.65625 l -14.140625 -14.140625 z m 0 0" fill="url(#j)"/>
    <path d="m 117.207031 22.796875 c 3.90625 -3.90625 3.90625 -10.238281 0 -14.140625 c -3.902343 -3.90625 -10.234375 -3.90625 -14.140625 0 c -3.90625 3.902344 -3.90625 10.234375 0 14.140625 s 10.238282 3.90625 14.140625 0 z m 0 0" fill="url(#k)"/>
    <path d="m 38.882812 86.980469 l 17.070313 -2.929688 l -14.140625 -14.140625 z m 0 0" fill="url(#l)"/>
    <path d="m 38.882812 86.980469 l 7.414063 -1.273438 l -6.140625 -6.140625 z m 0 0" fill="#3d3846"/>
    <path d="m 94.582031 17.140625 l 14.140625 14.140625 l 5.65625 -5.65625 l -14.140625 -14.140625 z m 0 0" fill="url(#m)"/>
</svg>
