<?xml version="1.0" encoding="UTF-8" standalone="no"?>
<svg
   height="16px"
   viewBox="0 0 16 16"
   width="16px"
   version="1.1"
   id="svg9"
   sodipodi:docname="nl.emphisia.icon-symbolic.svg"
   inkscape:version="1.4 (e7c3feb100, 2024-10-09)"
   xmlns:inkscape="http://www.inkscape.org/namespaces/inkscape"
   xmlns:sodipodi="http://sodipodi.sourceforge.net/DTD/sodipodi-0.dtd"
   xmlns="http://www.w3.org/2000/svg"
   xmlns:svg="http://www.w3.org/2000/svg">
  <defs
     id="defs9" />
  <sodipodi:namedview
     id="namedview9"
     pagecolor="#505050"
     bordercolor="#eeeeee"
     borderopacity="1"
     inkscape:showpageshadow="0"
     inkscape:pageopacity="0"
     inkscape:pagecheckerboard="0"
     inkscape:deskcolor="#505050"
     inkscape:zoom="51.265242"
     inkscape:cx="14.688315"
     inkscape:cy="6.8857571"
     inkscape:window-width="2560"
     inkscape:window-height="1371"
     inkscape:window-x="0"
     inkscape:window-y="0"
     inkscape:window-maximized="1"
     inkscape:current-layer="svg9" />
  <filter
     id="a"
     height="1"
     width="1"
     x="0"
     y="0">
    <feColorMatrix
       color-interpolation-filters="sRGB"
       values="0 0 0 0 1 0 0 0 0 1 0 0 0 0 1 0 0 0 1 0"
       id="feColorMatrix1" />
  </filter>
  <mask
     id="b">
    <g
       filter="url(#a)"
       id="g1">
      <rect
         fill-opacity="0.508475"
         height="19.2"
         width="19.2"
         x="-1.6"
         y="-1.6"
         id="rect1" />
    </g>
  </mask>
  <clipPath
     id="c">
    <rect
       height="152"
       width="192"
       id="rect2" />
  </clipPath>
  <mask
     id="d">
    <g
       filter="url(#a)"
       id="g3">
      <rect
         fill-opacity="0.505085"
         height="19.2"
         width="19.2"
         x="-1.6"
         y="-1.6"
         id="rect3" />
    </g>
  </mask>
  <clipPath
     id="e">
    <rect
       height="152"
       width="192"
       id="rect4" />
  </clipPath>
  <path
     d="m 14.867023,1.6918824 c -0.265625,0 -0.519531,0.1054687 -0.703125,0.2929688 h -0.0039 L 7.867023,8.3012574 v 1.3906253 h 1.390625 l 6.316406,-6.2929691 -0.0039,-0.00391 c 0.1914,-0.1835902 0.296869,-0.4374962 0.296869,-0.7031212 0,-0.550781 -0.449219,-1 -1,-1 z"
     style="fill:#222222;fill-opacity:1"
     id="path4" />
  <path
     d="m 2.035156 4.371094 v 0.882812 h 6.78125 v -0.882812 z m 0 0"
     id="path7"
     style="fill:#222222;fill-opacity:1" />
  <path
     id="path8"
     style="fill:#222222;fill-opacity:1"
     d="M 3.7304688 1.71875 C 2.3359378 1.71875 1.1875 2.9179688 1.1875 4.3710938 L 1.1875 11.441406 C 1.1875 12.894531 2.3359378 14.09375 3.7304688 14.09375 L 12.207031 14.09375 C 13.601562 14.09375 14.75 12.894531 14.75 11.441406 L 14.75 6.140625 C 14.75 5.8128261 14.690426 5.4997209 14.583984 5.2109375 L 13.054688 6.7363281 L 13.054688 11.441406 C 13.054688 11.941406 12.683594 12.328125 12.207031 12.328125 L 3.7304688 12.328125 C 3.2539057 12.328125 2.8828125 11.941406 2.8828125 11.441406 L 2.8828125 4.3710938 C 2.8828125 3.8749998 3.2539057 3.4882813 3.7304688 3.4882812 L 6.7695312 3.4882812 L 8.2148438 4.9960938 C 8.3749998 5.1601558 8.5898442 5.2539063 8.8164062 5.2539062 L 10.076172 5.2539062 L 11.835938 3.4882812 L 9.1679688 3.4882812 L 7.7226562 1.9804688 C 7.5625003 1.8124997 7.3476558 1.71875 7.1210938 1.71875 L 3.7304688 1.71875 z " />
</svg>
