<?xml version="1.0" encoding="UTF-8"?>
<svg height="16px" viewBox="0 0 16 16" width="16px" xmlns="http://www.w3.org/2000/svg" xmlns:xlink="http://www.w3.org/1999/xlink">
    <filter id="a" height="100%" width="100%" x="0%" y="0%">
        <feColorMatrix color-interpolation-filters="sRGB" values="0 0 0 0 1 0 0 0 0 1 0 0 0 0 1 0 0 0 1 0"/>
    </filter>
    <mask id="b">
        <g filter="url(#a)">
            <rect fill-opacity="0.508475" height="19.2" width="19.2" x="-1.6" y="-1.6"/>
        </g>
    </mask>
    <clipPath id="c">
        <rect height="152" width="192"/>
    </clipPath>
    <mask id="d">
        <g filter="url(#a)">
            <rect fill-opacity="0.505085" height="19.2" width="19.2" x="-1.6" y="-1.6"/>
        </g>
    </mask>
    <clipPath id="e">
        <rect height="152" width="192"/>
    </clipPath>
    <g mask="url(#b)">
        <g clip-path="url(#c)" transform="matrix(1 0 0 1 -168 -16)">
            <path d="m 62.050781 78.90625 c -2.101562 0 -3.820312 1.78125 -3.820312 3.964844 s 1.71875 3.964844 3.820312 3.964844 c 2.105469 0 3.824219 -1.78125 3.824219 -3.964844 s -1.71875 -3.964844 -3.824219 -3.964844 z m 13.375 11.894531 l -7.640625 7.929688 l -5.734375 -3.964844 l -7.640625 7.925781 v 1.984375 c 0 1.980469 1.910156 1.980469 1.910156 1.980469 h 26.75 s 1.804688 -0.136719 1.910157 -1.980469 v -3.964843 z m 0 0" fill="#438de6"/>
        </g>
    </g>
    <g mask="url(#d)">
        <g clip-path="url(#e)" transform="matrix(1 0 0 1 -168 -16)">
            <path d="m 54.410156 63.050781 c -6.285156 0 -11.464844 5.375 -11.464844 11.890625 v 31.714844 c 0 6.519531 5.179688 11.894531 11.464844 11.894531 h 30.570313 c 6.285156 0 11.464843 -5.375 11.464843 -11.894531 v -31.714844 c 0 -6.515625 -5.179687 -11.890625 -11.464843 -11.890625 z m 0 7.929688 h 30.570313 c 2.179687 0 3.820312 1.703125 3.820312 3.960937 v 31.714844 c 0 2.261719 -1.640625 3.964844 -3.820312 3.964844 h -30.570313 c -2.179687 0 -3.820312 -1.703125 -3.820312 -3.964844 v -31.714844 c 0 -2.257812 1.640625 -3.960937 3.820312 -3.960937 z m 0 0" fill="#438de6"/>
        </g>
    </g>
    <path d="m 2.035156 4.371094 v 0.882812 h 6.78125 v -0.882812 z m 0 0"/>
    <path d="m 3.730469 1.71875 c -1.394531 0 -2.542969 1.199219 -2.542969 2.652344 v 7.070312 c 0 1.453125 1.148438 2.652344 2.542969 2.652344 h 8.476562 c 1.394531 0 2.542969 -1.199219 2.542969 -2.652344 v -5.300781 c 0 -0.480469 -0.125 -0.929687 -0.34375 -1.316406 l -1.351562 1.351562 v 5.265625 c 0 0.5 -0.371094 0.886719 -0.847657 0.886719 h -8.476562 c -0.476563 0 -0.847657 -0.386719 -0.847657 -0.886719 v -7.070312 c 0 -0.496094 0.371094 -0.882813 0.847657 -0.882813 h 3.039062 l 1.445313 1.507813 c 0.160156 0.164062 0.375 0.257812 0.601562 0.257812 h 1.761719 l 1.761719 -1.757812 c -0.046875 -0.003906 -0.089844 -0.007813 -0.132813 -0.007813 h -3.039062 l -1.445313 -1.507812 c -0.160156 -0.167969 -0.375 -0.261719 -0.601562 -0.261719 z m 0 0"/>
    <path d="m 8.25 9.328125 h 1.292969 l 5.816406 -5.816406 l -1.292969 -1.292969 l -5.816406 5.816406 z m 0 0"/>
</svg>
